<?xml version="1.0" encoding="UTF-8" standalone="no"?>
<!-- Uploaded to: SVG Repo, www.svgrepo.com, Generator: SVG Repo Mixer Tools -->

<svg
   fill="#000000"
   width="605.4682"
   height="615.625"
   viewBox="0 0 774.9993 788"
   t="1569683368540"
   class="icon"
   version="1.1"
   p-id="9723"
   id="svg1"
   xmlns="http://www.w3.org/2000/svg"
   xmlns:svg="http://www.w3.org/2000/svg">
  <defs
     id="defs1">
    <style
       type="text/css"
       id="style1" />
  </defs>
  <path
     d="M 774.6,757.6 721.6,452 h 17.9 c 14.4,0 26,-11.6 26,-26 V 234 c 0,-14.4 -11.6,-26 -26,-26 h -246 V 26 c 0,-14.4 -11.6,-26 -26,-26 h -160 c -14.4,0 -26,11.6 -26,26 v 182 h -246 c -14.4,0 -26,11.6 -26,26 v 192 c 0,14.4 11.6,26 26,26 h 17.9 l -53,305.6 c -0.3,1.5 -0.4,3 -0.4,4.4 0,14.4 11.6,26 26,26 h 723 c 1.5,0 3,-0.1 4.4,-0.4 14.2,-2.4 23.7,-15.9 21.2,-30 z M 79.5,278 h 272 V 70 h 72 v 208 h 272 v 104 h -616 z m 468,440 V 562 c 0,-4.4 -3.6,-8 -8,-8 h -48 c -4.4,0 -8,3.6 -8,8 v 156 h -192 V 562 c 0,-4.4 -3.6,-8 -8,-8 h -48 c -4.4,0 -8,3.6 -8,8 V 718 H 78.3 l 45.1,-260 h 528.1 l 45.1,260 z"
     p-id="9724"
     id="path1"
     style="fill:#ffffff;fill-opacity:1" />
</svg>
