<?xml version="1.0" encoding="UTF-8" standalone="no"?>
<!-- Uploaded to: SVG Repo, www.svgrepo.com, Generator: SVG Repo Mixer Tools -->

<svg
   width="716.66992"
   height="716.66669"
   viewBox="0 0 21.500098 21.500001"
   fill="none"
   version="1.1"
   id="svg1"
   sodipodi:docname="football-svgrepo-com.svg"
   xmlns:inkscape="http://www.inkscape.org/namespaces/inkscape"
   xmlns:sodipodi="http://sodipodi.sourceforge.net/DTD/sodipodi-0.dtd"
   xmlns="http://www.w3.org/2000/svg"
   xmlns:svg="http://www.w3.org/2000/svg">
  <defs
     id="defs1" />
  <sodipodi:namedview
     id="namedview1"
     pagecolor="#ffffff"
     bordercolor="#000000"
     borderopacity="0.25"
     inkscape:showpageshadow="2"
     inkscape:pageopacity="0.0"
     inkscape:pagecheckerboard="0"
     inkscape:deskcolor="#d1d1d1">
    <inkscape:page
       x="0"
       y="0"
       width="21.500097"
       height="21.500002"
       id="page2"
       margin="0"
       bleed="0" />
  </sodipodi:namedview>
  <path
     d="M 7.94762,10.7082 8.66426,10.487 Z M 8.29558,9.6183 7.83995,9.0226 Z m 0.37338,3.4269 -0.71664,0.2212 z m 4.13894,0 -0.7166,-0.2212 z m 0.3734,-3.4269 -0.4556,0.5958 v 0 z m 0.348,1.0899 0.7166,0.2212 z M 11.3448,8.21375 11.8004,7.61802 Z m -1.2127,0 0.4556,0.59575 z M 18.9347,16.5 c 0.4142,0 0.75,-0.3358 0.75,-0.75 0,-0.4142 -0.3358,-0.75 -0.75,-0.75 z m -5.4054,1.9851 -0.7116,-0.2369 z m -1.2992,1.528 c -0.1309,0.393 0.0816,0.8176 0.4746,0.9485 0.393,0.1308 0.8177,-0.0817 0.9486,-0.4747 z M 2.74769,15 c -0.41421,0 -0.75,0.3358 -0.75,0.75 0,0.4142 0.33579,0.75 0.75,0.75 z m 5.40545,3.4851 0.71156,-0.2369 z m -0.12397,2.0018 c 0.13085,0.393 0.55552,0.6055 0.94853,0.4747 0.393,-0.1309 0.6055,-0.5555 0.4747,-0.9485 z M 6.97071,16.1275 6.53185,16.7357 Z M 4.306,4.20942 C 4.1989,3.80928 3.78772,3.57173 3.38759,3.67882 2.98746,3.78591 2.7499,4.19709 2.85699,4.59723 Z m -0.30649,1.75577 -0.7245,0.1939 v 0 z M 2.34168,10.3385 1.92811,9.7128 v 0 z m -1.96429,0.3994 c -0.34554,0.2284 -0.4405,0.6937 -0.21209,1.0392 0.22842,0.3456 0.6937,0.4405 1.03924,0.2121 z M 18.684,4.59732 C 18.7911,4.19719 18.5535,3.786 18.1534,3.67891 17.7533,3.57182 17.3421,3.80938 17.235,4.20951 Z M 17.5415,5.96528 16.817,5.77137 Z m 1.6578,4.37332 -0.4136,0.6257 z m 1.1371,1.6507 c 0.3456,0.2284 0.8109,0.1335 1.0393,-0.2121 0.2284,-0.3455 0.1334,-0.8108 -0.2121,-1.0392 z M 14.8403,2.58623 C 15.1788,2.3475 15.2596,1.87956 15.0209,1.54107 14.7822,1.20257 14.3142,1.1217 13.9757,1.36044 Z m -1.7527,0.31833 0.4323,0.6129 z M 8.41562,2.85403 7.97021,3.45744 v 0 z M 7.36539,1.14659 c -0.33326,-0.246 -0.80284,-0.17526 -1.04883,0.158 -0.246,0.33325 -0.17526,0.80283 0.158,1.04882 z m 6.16391,8.97121 -0.7166,0.2212 z m -5.58168,0 0.71664,0.2212 z M 19.9769,10.75 c 0,5.1095 -4.137,9.25 -9.2384,9.25 v 1.5 c 5.9315,0 10.7384,-4.8138 10.7384,-10.75 z M 10.7385,20 C 5.63701,20 1.5,15.8595 1.5,10.75 H 0 C 0,16.6862 4.80695,21.5 10.7385,21.5 Z M 1.5,10.75 C 1.5,5.64055 5.63701,1.5 10.7385,1.5 V 0 C 4.80695,0 0,4.81376 0,10.75 Z M 10.7385,1.5 c 5.1014,0 9.2384,4.14055 9.2384,9.25 h 1.5 C 21.4769,4.81376 16.67,0 10.7385,0 Z m 0.1507,7.3095 1.8365,1.4046 0.9113,-1.1915 -1.8366,-1.40458 z m 1.9234,1.6775 -0.7213,2.337 1.4333,0.4424 0.7213,-2.337 z M 11.8536,13 H 9.6233 v 1.5 h 2.2303 z m -2.468,-0.176 -0.72134,-2.337 -1.43328,0.4424 0.72134,2.337 z M 8.7512,10.2141 10.5877,8.8095 9.6765,7.61802 7.83995,9.0226 Z M 18.9347,15 h -1.6151 v 1.5 h 1.6151 z m -6.117,3.2482 -0.5876,1.7649 1.4232,0.4738 0.5876,-1.7649 z M 17.3196,15 c -0.6776,0 -1.2489,-0.0011 -1.7141,0.052 -0.4844,0.0554 -0.9291,0.1761 -1.3327,0.4673 l 0.8778,1.2164 c 0.1195,-0.0863 0.284,-0.1544 0.6252,-0.1934 C 16.1363,16.5011 16.6074,16.5 17.3196,16.5 Z m -3.0787,3.722 c 0.2252,-0.6764 0.3753,-1.1236 0.5284,-1.4531 0.145,-0.312 0.2616,-0.4469 0.3813,-0.5332 l -0.8778,-1.2164 c -0.4035,0.2912 -0.6583,0.6751 -0.8638,1.1175 -0.1975,0.4249 -0.377,0.9677 -0.5913,1.6114 z M 2.74769,16.5 h 1.6151 V 15 H 2.74769 Z M 7.44154,18.722 8.02917,20.4869 9.4524,20.0131 8.8647,18.2482 Z M 4.36279,16.5 c 0.71221,0 1.18332,0.0011 1.54379,0.0423 0.34126,0.039 0.5057,0.1071 0.62527,0.1934 L 7.40958,15.5193 C 7.00598,15.2281 6.56137,15.1074 6.07692,15.052 5.61168,14.9989 5.04041,15 4.36279,15 Z M 8.8647,18.2482 C 8.65043,17.6045 8.4709,17.0617 8.27346,16.6368 8.06791,16.1945 7.81311,15.8105 7.40958,15.5193 l -0.87773,1.2164 c 0.11963,0.0863 0.2363,0.2212 0.38129,0.5332 0.1531,0.3295 0.3032,0.7767 0.5284,1.4531 z M 2.85699,4.59723 3.27501,6.15909 4.72401,5.77128 4.306,4.20942 Z M 1.92811,9.7128 0.37739,10.7379 1.20454,11.9892 2.75526,10.9642 Z M 3.27501,6.15909 C 3.45933,6.84777 3.58021,7.30381 3.63378,7.66324 3.68452,8.00362 3.6614,8.18069 3.60896,8.31902 L 5.01156,8.8507 C 5.18795,8.38541 5.18932,7.92465 5.1174,7.44211 5.04831,6.97862 4.89941,6.42663 4.72401,5.77128 Z M 2.75526,10.9642 C 3.32077,10.5904 3.79807,10.2762 4.157,9.9752 4.53074,9.6619 4.83516,9.3161 5.01156,8.8507 L 3.60896,8.31902 C 3.55654,8.45729 3.45659,8.605 3.19321,8.8259 2.91501,9.0591 2.52244,9.32 1.92811,9.7128 Z M 17.235,4.20951 16.817,5.77137 18.266,6.15918 18.684,4.59732 Z m 1.5507,6.75479 1.5507,1.025 0.8272,-1.2513 -1.5507,-1.0251 z M 16.817,5.77137 C 16.6416,6.42672 16.4927,6.97871 16.4236,7.4422 16.3517,7.92474 16.353,8.3855 16.5294,8.8508 L 17.932,8.31911 C 17.8796,8.18078 17.8565,8.00372 17.9072,7.66333 17.9608,7.3039 18.0816,6.84787 18.266,6.15918 Z M 19.6129,9.7129 C 19.0185,9.3201 18.626,9.0592 18.3478,8.8259 18.0844,8.60509 17.9844,8.45739 17.932,8.31911 L 16.5294,8.8508 c 0.1764,0.4654 0.4808,0.8112 0.8546,1.1245 0.3589,0.301 0.8362,0.6152 1.4017,0.989 z m -5.6372,-8.35246 -1.3203,0.93122 0.8645,1.2258 1.3204,-0.93123 z M 8.861,2.25061 7.36539,1.14659 6.47456,2.35341 7.97021,3.45744 Z m 3.7944,0.04105 C 12.0731,2.7023 11.6873,2.97303 11.3689,3.14721 11.0674,3.31214 10.8938,3.35125 10.7466,3.34965 L 10.7303,4.84957 C 11.228,4.85495 11.6609,4.69721 12.0887,4.4632 12.4996,4.23845 12.9659,3.90817 13.5199,3.51746 Z M 7.97021,3.45744 c 0.54541,0.4026 1.00449,0.74289 1.41039,0.97647 0.4227,0.24321 0.8521,0.41027 1.3497,0.41566 L 10.7466,3.34965 C 10.5994,3.34806 10.4267,3.3052 10.1288,3.13379 9.8142,2.95276 9.4343,2.67375 8.861,2.25061 Z m 4.75549,6.75666 c 0.0422,0.0322 0.0718,0.0758 0.087,0.1249 L 14.2459,9.8965 C 14.1411,9.557 13.9328,9.2489 13.637,9.0226 Z m 0.087,0.1249 c 0.0146,0.0474 0.0152,0.0986 -10e-5,0.148 l 1.4333,0.4424 c 0.1064,-0.3445 0.1015,-0.704 0,-1.0329 z m 4.1311,-2.44697 -3.7015,1.53277 0.5739,1.3859 3.7015,-1.5328 z M 11.8004,7.61802 C 11.4871,7.37838 11.1124,7.25841 10.7385,7.25841 V 8.7584 c 0.0534,0 0.106,0.0169 0.1507,0.0511 z M 10.7385,7.25841 c -0.3739,0 -0.7487,0.11997 -1.062,0.35961 L 10.5877,8.8095 C 10.6324,8.7753 10.685,8.7584 10.7385,8.7584 Z m 0.75,0.75 v -3.9088 h -1.5 v 3.9088 z m 0.6028,4.81559 c -0.0154,0.0501 -0.0451,0.092 -0.0841,0.1227 l 0.928,1.1785 c 0.2723,-0.2144 0.4819,-0.5106 0.5894,-0.8588 z m -0.0841,0.1227 C 11.964,12.9808 11.9107,13 11.8536,13 v 1.5 c 0.4027,0 0.781,-0.1381 1.0816,-0.3748 z m 3.2719,2.6903 -2.2405,-2.5916 -1.1348,0.9811 2.2406,2.5915 z M 9.6233,13 C 9.5662,13 9.5129,12.9808 9.4697,12.9467 L 8.54172,14.1252 C 8.8423,14.3619 9.2206,14.5 9.6233,14.5 Z M 9.4697,12.9467 C 9.4307,12.916 9.401,12.8741 9.3856,12.824 l -1.43328,0.4424 c 0.10748,0.3482 0.31711,0.6444 0.5894,0.8588 z m -1.90911,3.644 2.03501,-2.5915 -1.17976,-0.9264 -2.035,2.5915 z M 8.66426,10.487 c -0.01527,-0.0494 -0.01465,-0.1006 0,-0.148 L 7.23099,9.8965 c -0.1015,0.3289 -0.10634,0.6884 -1e-5,1.0329 z m 0,-0.148 C 8.6794,10.2899 8.70905,10.2463 8.7512,10.2141 L 7.83995,9.0226 C 7.54412,9.2489 7.33579,9.557 7.23099,9.8965 Z M 8.23889,9.4266 4.60153,7.89373 4.019,9.276 7.65636,10.8089 Z"
     fill="#1C274C"
     id="path1"
     style="fill:#ffffff;fill-opacity:1" />
</svg>
