<?xml version="1.0" encoding="UTF-8" standalone="no"?>
<svg
   viewBox="0 0 448 480"
   version="1.1"
   id="svg60"
   sodipodi:docname="headphones.svg"
   width="448"
   height="480"
   xmlns:inkscape="http://www.inkscape.org/namespaces/inkscape"
   xmlns:sodipodi="http://sodipodi.sourceforge.net/DTD/sodipodi-0.dtd"
   xmlns="http://www.w3.org/2000/svg"
   xmlns:svg="http://www.w3.org/2000/svg">
  <defs
     id="defs64" />
  <sodipodi:namedview
     id="namedview62"
     pagecolor="#ffffff"
     bordercolor="#000000"
     borderopacity="0.25"
     inkscape:showpageshadow="2"
     inkscape:pageopacity="0.0"
     inkscape:pagecheckerboard="0"
     inkscape:deskcolor="#d1d1d1"
     showgrid="false" />
  <!--!Font Awesome Free 7.0.0 by @fontawesome - https://fontawesome.com License - https://fontawesome.com/license/free Copyright 2025 Fonticons, Inc.-->
  <path
     d="m 64,224 c 0,-88.4 71.6,-160 160,-160 88.4,0 160,71.6 160,160 v 37.5 C 374,258 363.2,256 352,256 h -16 c -26.5,0 -48,21.5 -48,48 v 128 c 0,26.5 21.5,48 48,48 h 16 c 53,0 96,-43 96,-96 V 224 C 448,100.3 347.7,0 224,0 100.3,0 0,100.3 0,224 v 160 c 0,53 43,96 96,96 h 16 c 26.5,0 48,-21.5 48,-48 V 304 c 0,-26.5 -21.5,-48 -48,-48 H 96 c -11.2,0 -22,1.9 -32,5.5 z"
     id="path58"
     style="fill:#ffffff;fill-opacity:1"
     inkscape:export-filename="../../../../../../../Descargas/path58.svg"
     inkscape:export-xdpi="96"
     inkscape:export-ydpi="96" />
</svg>
