<?xml version="1.0" encoding="UTF-8" standalone="no"?>
<!-- Uploaded to: SVG Repo, www.svgrepo.com, Generator: SVG Repo Mixer Tools -->

<svg
   fill="#000000"
   width="633.33331"
   height="716.78308"
   viewBox="0 0 37.999999 43.006985"
   version="1.1"
   id="svg1"
   sodipodi:docname="mate-svgrepo-com.svg"
   inkscape:export-filename="../cf02b89e/.png"
   inkscape:export-xdpi="96"
   inkscape:export-ydpi="96"
   xmlns:inkscape="http://www.inkscape.org/namespaces/inkscape"
   xmlns:sodipodi="http://sodipodi.sourceforge.net/DTD/sodipodi-0.dtd"
   xmlns="http://www.w3.org/2000/svg"
   xmlns:svg="http://www.w3.org/2000/svg">
  <defs
     id="defs1" />
  <sodipodi:namedview
     id="namedview1"
     pagecolor="#ffffff"
     bordercolor="#000000"
     borderopacity="0.25"
     inkscape:showpageshadow="2"
     inkscape:pageopacity="0.0"
     inkscape:pagecheckerboard="0"
     inkscape:deskcolor="#d1d1d1">
    <inkscape:page
       x="0"
       y="0"
       width="38"
       height="43.006985"
       id="page2"
       margin="0"
       bleed="0" />
  </sodipodi:namedview>
  <path
     d="m 34.580078,0.00112388 a 1.50015,1.50015 0 0 0 -0.544922,0.080078 l -3.902344,1.27148432 -0.0293,0.011719 c -2.129813,0.7976439 -3.907864,2.3261398 -5.011719,4.3125 0,0 -0.002,0 -0.002,0 l -0.0078,0.019531 -0.04297,0.082031 -1.830078,4.8964848 C 22.052003,10.872384 20.647338,11.006983 19,11.006983 c -4.34,0 -7.020312,-0.93 -7.820312,-1.4999997 0.8,-0.57 3.480312,-1.5 7.820312,-1.5 0.7,0 1.360469,0.02031 1.980469,0.07031 L 22.080078,5.1671395 C 20.980078,5.0571395 19.92,5.0069833 19,5.0069833 c -3.401851,0 -8.742353,0.6619276 -10.447266,2.9257812 A 1.50015,1.50015 0 0 0 8.320312,8.1808113 c 0,0 -0.783393,0.993786 -1.574218,2.1953127 C 6.350681,10.976887 5.949638,11.631588 5.625,12.284327 5.300362,12.937066 5,13.524195 5,14.401514 5,14.569983 5.01369,14.735379 5.03711,14.897608 3.8130173,16.306909 0,21.269411 0,28.575342 0,33.544705 2.6190476,37.331841 6.255859,39.655421 9.892672,41.979 14.514706,43.006983 19,43.006983 c 4.485294,0 9.107328,-1.027983 12.744141,-3.351562 C 35.380953,37.331841 38,33.544705 38,28.575342 38,21.269411 34.186983,16.306909 32.962891,14.897608 32.986313,14.735379 33,14.569983 33,14.401514 33,13.524195 32.699638,12.937066 32.375,12.284327 32.050362,11.631588 31.649319,10.976887 31.253906,10.376124 30.463081,9.1745973 29.679688,8.1808113 29.679688,8.1808113 A 1.50015,1.50015 0 0 0 29.439453,7.9347177 C 29.090598,7.4723956 28.598448,7.0749558 27.992188,6.7394052 28.752823,5.5787969 29.8403,4.6684373 31.148438,4.1769052 L 34.964844,2.9327645 A 1.50015,1.50015 0 0 0 34.580078,0.00112388 Z M 9.365234,11.866358 c 2.217932,1.634318 6.664292,2.140625 9.634766,2.140625 1.620701,0 3.675282,-0.159541 5.576172,-0.560547 a 1.5002762,1.5002762 0 0 0 0.195312,-0.04883 c 1.506632,-0.334099 2.897975,-0.819948 3.863282,-1.53125 0.0404,0.06032 0.07084,0.09865 0.111328,0.160156 0.354587,0.538737 0.703544,1.115489 0.941406,1.59375 0.237862,0.478261 0.3125,0.92157 0.3125,0.78125 0,0.168294 -0.08002,0.443872 -0.519531,0.865235 -0.439517,0.421362 -1.205537,0.906797 -2.214844,1.324218 C 25.24701,17.42581 22.279709,18.006983 19,18.006983 c -3.279709,0 -6.24701,-0.581173 -8.265625,-1.416016 C 9.725068,16.173546 8.959048,15.688111 8.519531,15.266749 8.080015,14.845386 8,14.569808 8,14.401514 c 0,0.14032 0.07464,-0.302989 0.3125,-0.78125 0.237862,-0.478261 0.586819,-1.055013 0.941406,-1.59375 0.04048,-0.06151 0.07093,-0.09984 0.111328,-0.160156 z m -2.6875,5.763672 c 0.791119,0.694758 1.767701,1.259934 2.910157,1.732422 2.505385,1.036157 5.787818,1.644531 9.412109,1.644531 3.624291,0 6.906724,-0.608374 9.412109,-1.644531 1.142456,-0.472488 2.119038,-1.037664 2.910157,-1.732422 C 32.645227,19.370645 35,23.204905 35,28.575342 c 0,3.961637 -1.880953,6.641611 -4.869141,8.550782 -2.988187,1.90917 -7.116153,2.880859 -11.130859,2.880859 -4.014706,0 -8.142672,-0.971689 -11.130859,-2.880859 C 4.8809524,35.216953 3,32.536979 3,28.575342 3,23.204905 5.354773,19.370645 6.677734,17.63003 Z"
     id="path1"
     style="fill:#ffffff;fill-opacity:1" />
</svg>
