<?xml version="1.0" encoding="UTF-8" standalone="no"?>
<svg
   viewBox="0 0 511.97375 512.05939"
   version="1.1"
   id="svg4"
   sodipodi:docname="pen-solid-full.svg"
   width="511.97375"
   height="512.05939"
   xmlns:inkscape="http://www.inkscape.org/namespaces/inkscape"
   xmlns:sodipodi="http://sodipodi.sourceforge.net/DTD/sodipodi-0.dtd"
   xmlns="http://www.w3.org/2000/svg"
   xmlns:svg="http://www.w3.org/2000/svg">
  <defs
     id="defs8" />
  <sodipodi:namedview
     id="namedview6"
     pagecolor="#ffffff"
     bordercolor="#000000"
     borderopacity="0.25"
     inkscape:showpageshadow="2"
     inkscape:pageopacity="0.0"
     inkscape:pagecheckerboard="0"
     inkscape:deskcolor="#d1d1d1"
     showgrid="false" />
  <!--!Font Awesome Free 7.0.0 by @fontawesome - https://fontawesome.com License - https://fontawesome.com/license/free Copyright 2025 Fonticons, Inc.-->
  <path
     d="m 352.87376,21.2 -44.9,44.9 137.9,137.9 44.9,-44.9 c 13.6,-13.5 21.2,-31.9 21.2,-51.1 0,-19.2 -7.6,-37.6 -21.2,-51.1 l -35.7,-35.7 c -13.5,-13.6 -31.9,-21.2 -51.1,-21.2 -19.2,0 -37.6,7.6 -51.1,21.2 z m -78.8,78.8 -215.199998,215.1 c -10.7,10.7 -18.5,24.1 -22.6,38.7 l -35.4,127.8 c -2.3,8.3 0,17.3 6.2,23.4 6.2,6.1 15.1,8.5 23.4,6.2 L 158.27376,475.7 c 14.6,-4.1 27.9,-11.8 38.7,-22.6 l 215,-215.2 z"
     id="path2"
     style="fill:#ffffff;fill-opacity:1" />
</svg>
